<svg xmlns="http://www.w3.org/2000/svg" viewBox="0 0 147.85 50"><path d="M27.08,16.67A8.33,8.33,0,1,0,35.42,25,8.33,8.33,0,0,0,27.08,16.67Zm0,13.33a5,5,0,1,1,5-5A5,5,0,0,1,27.08,30Z" style="fill:#323439"/><path d="M45.83,16.67A8.33,8.33,0,1,0,54.17,25,8.33,8.33,0,0,0,45.83,16.67Zm0,13.33a5,5,0,1,1,5-5A5,5,0,0,1,45.83,30Z" style="fill:#323439"/><path d="M64.17,17.08a7.5,7.5,0,0,0-7.5,7.5v8.34H60V24.58a4.17,4.17,0,0,1,4.17-4.16h1.66V17.08Z" style="fill:#323439"/><path d="M90.83,23.75a6.66,6.66,0,0,0-11.66-4.41A6.67,6.67,0,0,0,67.5,23.75h0v9.17h3.33V23.75a3.34,3.34,0,0,1,6.67,0v9.17h3.33V23.75h0a3.34,3.34,0,0,1,6.67,0h0v9.17h3.33V23.75Z" style="fill:#323439"/><path d="M111.6,24a9.75,9.75,0,0,0-.19-1,6.73,6.73,0,0,0-.32-1,8.32,8.32,0,0,0-16,4,9.09,9.09,0,0,0,.18,1,9.75,9.75,0,0,0,.32,1,8.33,8.33,0,0,0,16-2h-2.1A6.24,6.24,0,0,1,97.61,27.5l11.94-3ZM97.1,25.48a6.24,6.24,0,0,1,12-3Z" style="fill:#323439"/><path d="M128.26,10v9.5a8.32,8.32,0,1,0,2.09,5.5V10ZM122,31.25A6.25,6.25,0,1,1,128.26,25,6.25,6.25,0,0,1,122,31.25Z" style="fill:#323439"/><path d="M145.76,16.67v9.16a5.42,5.42,0,1,1-10.83,0V16.67h-2.08v9.16a7.5,7.5,0,0,0,15,0V16.67Z" style="fill:#323439"/><path d="M16.67,25h0A8.34,8.34,0,0,0,0,24.58c0,.14,0,.28,0,.42s0,.28,0,.42a8.12,8.12,0,0,0,13.32,5.81V32.5a4.62,4.62,0,0,1-1.22,2.94,5.08,5.08,0,0,1-5.26,1,5.7,5.7,0,0,1-2.79-2.17L1,35.55a8.34,8.34,0,0,0,4.91,4.08A9.21,9.21,0,0,0,8.33,40a8.39,8.39,0,0,0,6.14-2.2,7.93,7.93,0,0,0,2.2-5.3h0ZM8.33,30a5,5,0,1,1,5-5A5,5,0,0,1,8.33,30Z" style="fill:#323439"/></svg>